# xmcd CD database file
#
# Track frame offsets:
#	150
#	19757
#	42395
#	61525
#
# Disc length: 1123 seconds
#
# Revision: 0
# Processed by: cddbd v1.5.1PL0 Copyright (c) Steve Scherf et al.
# Submitted via: CDex 1.51
#
DISCID=27046104
DTITLE=KICK THE CAN CREW - ONEWAY
DYEAR=1900
DGENRE=Hip Hop
TTITLE0=ONEWAY
TTITLE1=HANDS
TTITLE2=マルシェROCK T-EE'S MO'RAW-FUNK REMIX
TTITLE3=マルシェLive at ZEPP OSAKA,24 DEC.2001
EXTD=
EXTT0=
EXTT1=
EXTT2=
EXTT3=
PLAYORDER=
